# xmcd
# Track frame offsets:
# 150
# 14508
# 31447
# 48241
# 68276
# 84914
# 104178
# 119795
# 137192
# 152529
# 169118
# 200716
# 217500
# 232298
#
# Disc length: 3365 seconds
# Revision: 0
# Processed by: cddbd v1.5.2PL0 Copyright (c) Steve Scherf et al.
# Submitted via: VisiTrax 2.10.0.248 - For more info visit www.synapsa.com
#
DISCID=c20d230e
DTITLE=Jimmy Buffett - Take The Weather With You
DYEAR=2006
DGENRE=
TTITLE0=Bama Breeze
TTITLE1=Party At the End of the World
TTITLE2=Weather With You
TTITLE3=Everybody's On the Phone
TTITLE4=Whoop De Doo
TTITLE5=Nothin' But A Breeze
TTITLE6=Cinco De Mayo In Memphis
TTITLE7=Reggabilly Hill
TTITLE8=Elvis Presley Blues
TTITLE9=Hula Girl At Heart
TTITLE10=Wheel Inside the Wheel
TTITLE11=Silver Wings
TTITLE12=Breathe In, Breathe Out, Move On
TTITLE13=Duke's On Sunday
EXTD=
EXTT0=
EXTT1=
EXTT2=
EXTT3=
EXTT4=
EXTT5=
EXTT6=
EXTT7=
EXTT8=
EXTT9=
EXTT10=
EXTT11=
EXTT12=
EXTT13=
PLAYORDER=
